<?xml version="1.0" encoding="UTF-8"?>
<svg xmlns="http://www.w3.org/2000/svg" xmlns:xlink="http://www.w3.org/1999/xlink" viewBox="0 0 48 48" width="48px" height="48px">
<g id="surface26457318">
<path style=" stroke:none;fill-rule:nonzero;fill:rgb(40.000001%,40.000001%,40.000001%);fill-opacity:1;" d="M 15.171875 2.609375 C 11.917969 2.527344 8.949219 4.734375 8.1875 8.03125 L 7.078125 12.835938 C 10.171875 7.792969 15.496094 4.464844 21.386719 3.894531 L 16.582031 2.785156 C 16.109375 2.679688 15.640625 2.621094 15.171875 2.609375 Z M 23.617188 7 C 16.371094 7.160156 9.761719 11.980469 7.660156 19.3125 C 5.070312 28.339844 10.289062 37.753906 19.316406 40.339844 C 28.339844 42.929688 37.753906 37.710938 40.34375 28.683594 C 42.929688 19.660156 37.710938 10.246094 28.6875 7.65625 C 26.992188 7.171875 25.289062 6.960938 23.617188 7 Z M 35.164062 7.078125 C 40.207031 10.171875 43.535156 15.496094 44.105469 21.386719 L 45.214844 16.582031 C 46.082031 12.8125 43.738281 9.058594 39.96875 8.1875 Z M 20.191406 12.589844 C 20.457031 12.609375 20.722656 12.660156 20.988281 12.734375 C 23.109375 13.34375 24.339844 15.558594 23.730469 17.679688 C 23.121094 19.800781 20.90625 21.03125 18.785156 20.421875 C 16.660156 19.8125 15.433594 17.597656 16.042969 15.476562 C 16.574219 13.617188 18.335938 12.445312 20.191406 12.589844 Z M 31.726562 15.898438 C 31.992188 15.917969 32.257812 15.96875 32.523438 16.042969 C 34.644531 16.652344 35.875 18.867188 35.265625 20.988281 C 34.65625 23.109375 32.441406 24.339844 30.320312 23.730469 C 28.195312 23.121094 26.96875 20.90625 27.578125 18.785156 C 28.109375 16.925781 29.871094 15.753906 31.726562 15.898438 Z M 24.035156 22 C 25.140625 22.019531 26.015625 22.929688 26 24.035156 C 25.980469 25.140625 25.070312 26.015625 23.964844 25.996094 C 22.859375 25.980469 21.984375 25.070312 22.003906 23.964844 C 22.019531 22.859375 22.929688 21.984375 24.035156 22 Z M 16.882812 24.125 C 17.148438 24.148438 17.417969 24.195312 17.679688 24.269531 C 19.804688 24.878906 21.03125 27.09375 20.421875 29.214844 C 19.816406 31.339844 17.597656 32.566406 15.476562 31.957031 C 13.355469 31.347656 12.125 29.132812 12.734375 27.011719 C 13.265625 25.152344 15.03125 23.984375 16.882812 24.125 Z M 3.894531 26.617188 L 2.785156 31.421875 C 1.917969 35.191406 4.261719 38.945312 8.03125 39.816406 L 12.835938 40.925781 C 7.792969 37.828125 4.464844 32.503906 3.894531 26.617188 Z M 28.417969 27.433594 C 28.683594 27.453125 28.953125 27.503906 29.21875 27.578125 C 31.339844 28.1875 32.566406 30.402344 31.957031 32.523438 C 31.347656 34.644531 29.132812 35.875 27.011719 35.265625 C 24.890625 34.65625 23.660156 32.441406 24.269531 30.320312 C 24.800781 28.460938 26.5625 27.289062 28.417969 27.433594 Z M 40.925781 35.164062 C 37.828125 40.207031 32.503906 43.535156 26.617188 44.105469 L 31.421875 45.214844 C 35.191406 46.082031 38.945312 43.738281 39.816406 39.96875 Z M 40.925781 35.164062 "/>
</g>
</svg>
